<svg width="500" height="500" viewBox="0 0 500 500" fill="none" xmlns="http://www.w3.org/2000/svg">
<rect x="300" y="83" width="74" height="74" rx="7" fill="#91C26A" stroke="#91C26A" stroke-width="6"/>
<rect x="300" y="257" width="74" height="74" rx="7" fill="#91C26A" stroke="#91C26A" stroke-width="6"/>
<rect x="126" y="257" width="74" height="74" rx="7" fill="#91C26A" stroke="#91C26A" stroke-width="6"/>
<rect x="126" y="170" width="74" height="74" rx="7" fill="#91C26A" stroke="#91C26A" stroke-width="6"/>
<rect x="126" y="344" width="74" height="74" rx="7" fill="#91C26A" stroke="#91C26A" stroke-width="6"/>
<path d="M163 80L177.425 105.575L203 120L177.425 134.425L163 160L148.575 134.425L123 120L148.575 105.575L163 80Z" fill="#F26B6B"/>
<path d="M285 85H225C219.477 85 215 89.4772 215 95V144.5C215 150.023 219.477 154.5 225 154.5H285" stroke="#91C26A" stroke-width="5" stroke-linecap="round" stroke-linejoin="round"/>
<path d="M214 259V318.5C214 324.023 218.477 328.5 224 328.5H284" stroke="#91C26A" stroke-width="5" stroke-linecap="round" stroke-linejoin="round"/>
<path d="M285 346H225C219.477 346 215 350.477 215 356V405.5C215 411.023 219.477 415.5 225 415.5H285" stroke="#91C26A" stroke-width="5" stroke-linecap="round" stroke-linejoin="round"/>
<path d="M284.5 242C284.5 242 284.5 220.668 284.5 207M215 242C215 242 215 220.668 215 207M284.5 207C284.5 199.373 284.5 189.359 284.5 181.997C284.5 176.474 280.023 172 274.5 172H225C219.477 172 215 176.474 215 181.997C215 189.359 215 199.373 215 207M284.5 207H215" stroke="#91C26A" stroke-width="5" stroke-linecap="round" stroke-linejoin="round"/>
</svg>
